<?xml version="1.0" standalone="no"?>
<!DOCTYPE svg PUBLIC "-//W3C//DTD SVG 20010904//EN"
 "http://www.w3.org/TR/2001/REC-SVG-20010904/DTD/svg10.dtd">
<svg version="1.0" xmlns="http://www.w3.org/2000/svg"
 width="125.000000pt" height="125.000000pt" viewBox="0 0 125.000000 125.000000"
 preserveAspectRatio="xMidYMid meet">
<metadata>
Created by potrace 1.14, written by Peter Selinger 2001-2017
</metadata>
<g transform="translate(0.000000,125.000000) scale(0.100000,-0.100000)"
fill="#000000" stroke="none">
<path d="M302 796 c-112 -40 -109 -149 5 -184 21 -6 60 -17 87 -24 76 -20 89
-62 22 -74 -31 -5 -82 21 -89 46 -3 13 -14 16 -53 13 -72 -5 -76 -7 -63 -40 5
-15 22 -39 37 -53 25 -23 35 -25 147 -28 119 -4 122 -3 153 23 56 47 53 133
-6 167 -26 16 -80 32 -134 42 -71 12 -88 49 -26 54 28 2 40 -2 52 -19 13 -19
23 -22 72 -20 31 1 61 4 66 7 16 10 -27 67 -62 82 -44 19 -164 24 -208 8z"/>
<path d="M628 648 c-2 -73 -2 -148 0 -165 3 -32 5 -33 50 -33 l47 0 -5 100
c-4 82 -3 97 8 83 6 -9 12 -24 13 -32 0 -9 10 -45 22 -81 l22 -65 48 -3 c26
-2 47 1 46 5 -1 4 1 17 5 28 23 59 27 73 32 99 3 17 9 37 15 45 8 13 9 11 8
-9 -1 -14 -1 -58 0 -97 l1 -73 45 0 45 0 0 165 0 165 -74 0 -73 0 -22 -72
c-11 -40 -21 -79 -21 -87 0 -14 -15 -6 -15 7 0 4 -3 12 -6 17 -3 6 -14 38 -24
73 l-19 62 -72 0 -73 0 -3 -132z"/>
</g>
</svg>
