<?xml version="1.0" standalone="no"?>
<!DOCTYPE svg PUBLIC "-//W3C//DTD SVG 20010904//EN"
 "http://www.w3.org/TR/2001/REC-SVG-20010904/DTD/svg10.dtd">
<svg version="1.0" xmlns="http://www.w3.org/2000/svg"
 width="260.000000pt" height="260.000000pt" viewBox="0 0 260.000000 260.000000"
 preserveAspectRatio="xMidYMid meet">
<metadata>
Created by potrace 1.14, written by Peter Selinger 2001-2017
</metadata>
<g transform="translate(0.000000,260.000000) scale(0.100000,-0.100000)"
fill="#000000" stroke="none">
<path d="M345 1485 c-5 -2 -22 -6 -36 -9 -42 -9 -79 -50 -79 -89 0 -50 34 -76
136 -103 48 -13 91 -29 96 -36 10 -17 -26 -48 -56 -48 -28 0 -66 27 -66 46 0
12 -12 14 -62 11 -34 -2 -63 -8 -65 -13 -6 -18 37 -73 69 -91 46 -24 210 -25
254 -1 54 29 72 118 32 155 -34 30 -55 39 -140 58 -50 11 -78 22 -78 31 0 35
70 37 94 2 18 -26 126 -25 126 2 0 32 -38 67 -84 79 -42 10 -118 14 -141 6z"/>
<path d="M1995 1428 c1 -57 -3 -67 -25 -63 -25 5 -49 -23 -30 -35 7 -4 22 -7
32 -5 21 4 20 6 22 -60 2 -50 4 -53 44 -46 4 0 7 57 7 126 l0 125 -25 0 c-24
0 -26 -3 -25 -42z"/>
<path d="M2182 1463 c-6 -3 -10 -9 -7 -13 10 -16 -22 -75 -55 -103 -27 -23
-30 -30 -20 -42 11 -14 16 -14 39 1 14 9 35 26 45 38 12 14 20 17 23 9 2 -7
20 -22 39 -34 34 -20 36 -21 48 -3 12 16 11 20 -12 31 -35 18 -57 52 -57 87 0
29 -15 38 -43 29z"/>
<path d="M2326 1440 c5 -28 3 -30 -28 -30 -27 0 -34 -4 -35 -20 -1 -16 4 -20
31 -20 30 0 33 -2 32 -32 -1 -28 3 -33 24 -36 25 -3 25 -3 25 83 l0 85 -27 0
c-24 0 -26 -3 -22 -30z"/>
<path d="M630 1295 l0 -165 46 0 45 0 -2 95 c-1 53 0 98 3 100 2 3 15 -32 28
-78 32 -114 34 -117 78 -117 l38 0 29 91 c16 50 32 92 35 94 3 2 4 -39 3 -91
l-2 -94 45 0 c32 0 44 4 45 15 0 8 0 71 0 140 0 69 0 136 0 150 -1 26 -2 26
-73 23 l-71 -3 -18 -55 c-10 -30 -19 -65 -19 -77 0 -44 -17 -22 -41 55 l-24
77 -72 3 -73 3 0 -166z"/>
<path d="M1167 1449 c-37 -10 -56 -36 -57 -75 0 -35 12 -47 79 -84 25 -14 47
-33 49 -43 9 -46 -55 -63 -101 -27 -33 26 -37 25 -31 -7 7 -38 30 -53 80 -53
57 0 93 18 101 49 15 58 -4 89 -80 128 -38 19 -48 28 -45 46 4 28 59 36 94 12
23 -15 24 -15 24 9 0 39 -57 61 -113 45z"/>
<path d="M1797 1452 c-8 -2 -15 -12 -14 -23 1 -16 9 -19 54 -19 39 0 53 -4 53
-14 0 -24 -52 -78 -92 -96 -34 -15 -36 -18 -24 -35 35 -49 153 61 170 158 4
22 1 27 -17 28 -96 3 -115 4 -130 1z"/>
<path d="M1290 1430 c0 -17 7 -20 45 -20 l44 0 3 -122 c3 -119 4 -123 26 -126
22 -3 22 -2 22 122 l0 126 50 0 c40 0 48 3 44 15 -13 33 6 12 45 -51 l42 -67
-45 -73 -46 -74 28 0 c22 0 32 9 55 51 23 41 31 48 43 38 8 -6 14 -16 14 -21
0 -24 41 -65 65 -65 14 0 25 1 25 3 0 2 -20 34 -44 71 l-43 67 20 36 c10 19
27 46 37 60 33 48 33 50 3 50 -23 0 -33 -9 -56 -50 -16 -28 -30 -50 -32 -50
-2 0 -16 23 -31 50 l-27 50 -144 0 c-136 0 -143 -1 -143 -20z"/>
<path d="M2152 1266 c3 -19 9 -21 85 -21 45 0 85 -3 89 -8 4 -4 -34 -7 -84 -7
l-92 0 0 -50 0 -50 115 0 c108 0 115 1 115 20 0 19 -7 20 -90 20 -116 0 -118
18 -3 22 l88 3 0 45 0 45 -113 1 c-110 1 -113 1 -110 -20z"/>
<path d="M1822 1185 l2 -55 113 0 c111 0 113 0 113 23 0 21 -3 22 -87 22 l-88
0 -3 33 c-3 26 -8 32 -27 32 -23 0 -24 -3 -23 -55z"/>
</g>
</svg>
